<svg xmlns="http://www.w3.org/2000/svg" viewBox="0 0 525.84 57.37"><g id="Layer_2" data-name="Layer 2"><g id="Layer_1-2" data-name="Layer 1"><path d="M0,56.59V.78H11.67L26.51,33.86h.15V.78H36.4V56.59H26.2l-16.31-36H9.74v36Z"/><path d="M47.23,56.59V.78H57.9V56.59Z"/><path d="M77.84,40.05c0,6.18,2.71,7.88,7,7.88s7-1.7,7-7.88V36.34h10.67v2.32c0,13.76-7.27,18.71-17.62,18.71S67.19,52.42,67.19,38.66V18.71C67.19,5,74.46,0,84.81,0s17.62,5,17.62,18.71v.15H91.75V17.31c0-6.18-2.71-7.88-7-7.88s-7,1.7-7,7.88V40.05Z"/><path d="M111.08,56.59V.78H140.3v9.43H121.75V23H135.9v9.43H121.75V47.16h19.32v9.43Z"/><path d="M174.77,40.05c0,6.18,2.71,7.88,7,7.88s7-1.7,7-7.88V36.34h10.67v2.32c0,13.76-7.27,18.71-17.62,18.71s-17.62-4.95-17.62-18.71V18.71C164.12,5,171.39,0,181.74,0s17.62,5,17.62,18.71v.15H188.69V17.31c0-6.18-2.71-7.88-7-7.88s-7,1.7-7,7.88Z"/><path d="M207.08,18.71C207.08,5,214.35,0,224.7,0s17.62,5,17.62,18.71V38.65c0,13.76-7.27,18.71-17.62,18.71s-17.62-5-17.62-18.71Zm10.66,21.34c0,6.18,2.71,7.88,7,7.88s7-1.7,7-7.88V17.32c0-6.18-2.71-7.88-7-7.88s-7,1.7-7,7.88Z"/><path d="M251.6,56.59V.78h14.92l9.66,36.64h.15L286,.78h14.92V56.59h-9.12V12.69h-.15l-11.36,43.9h-8l-11.36-43.9h-.15v43.9Z"/><path d="M311.73,56.59V.78h14.92l9.66,36.64h.15L346.12.78H361V56.59h-9.12V12.69h-.15l-11.36,43.9h-8L321,12.69h-.15v43.9Z"/><path d="M371.25,56.59V.78h29.22v9.43H381.92V23h14.15v9.43H381.92V47.16h19.32v9.43Z"/><path d="M434.94,56.59l-9.28-22.73h-5.1V56.59H409.89V.78h15.46c12.83,0,18.94,6.18,18.94,16.7,0,7-2.47,12-8.43,14.22l10.51,24.89ZM420.56,25.05h5.49c4.71,0,7.57-2.32,7.57-7.73s-2.86-7.73-7.57-7.73h-5.49Z"/><path d="M462.61,40.05c0,6.18,2.71,7.88,7,7.88s7-1.7,7-7.88V36.34H487.2v2.32c0,13.76-7.27,18.71-17.62,18.71S452,52.42,452,38.66V18.71C452,5,459.23,0,469.58,0S487.2,5,487.2,18.71v.15H476.53V17.31c0-6.18-2.71-7.88-7-7.88s-7,1.7-7,7.88Z"/><path d="M495.85,56.59V.78h29.22v9.43H506.52V23h14.15v9.43H506.52V47.16h19.32v9.43Z"/></g></g></svg>